<?xml version="1.0" standalone="no"?>
<!DOCTYPE svg PUBLIC "-//W3C//DTD SVG 20010904//EN"
 "http://www.w3.org/TR/2001/REC-SVG-20010904/DTD/svg10.dtd">
<svg version="1.0" xmlns="http://www.w3.org/2000/svg"
 width="270.000000pt" height="270.000000pt" viewBox="0 0 270.000000 270.000000"
 preserveAspectRatio="xMidYMid meet">

<g transform="translate(0.000000,270.000000) scale(0.100000,-0.100000)"
fill="#000000" stroke="none">
<path d="M839 2172 c-122 -32 -225 -120 -282 -240 l-32 -67 -3 -494 c-3 -556
-4 -551 70 -661 52 -78 138 -143 225 -170 54 -17 93 -20 234 -20 l169 0 0 280
0 279 -107 3 -108 3 0 120 0 120 108 3 107 3 0 128 c0 157 15 212 77 281 65
73 124 95 253 94 58 0 122 -3 143 -7 l37 -8 0 -104 0 -105 -77 0 c-85 0 -131
-18 -154 -62 -7 -12 -14 -67 -17 -120 l-5 -98 115 0 c63 0 117 -2 120 -5 4 -4
-8 -96 -27 -212 l-6 -32 -97 -3 -97 -3 -3 -278 -2 -279 193 4 193 3 69 34
c127 63 219 182 245 320 6 31 10 229 10 475 0 459 -5 513 -56 606 -58 106
-183 197 -304 220 -31 6 -235 10 -489 9 -378 0 -445 -2 -502 -17z"/>
</g>
</svg>
