<?xml version="1.0" standalone="no"?>
<!DOCTYPE svg PUBLIC "-//W3C//DTD SVG 20010904//EN"
 "http://www.w3.org/TR/2001/REC-SVG-20010904/DTD/svg10.dtd">
<svg version="1.0" xmlns="http://www.w3.org/2000/svg"
 width="270.000000pt" height="270.000000pt" viewBox="0 0 270.000000 270.000000"
 preserveAspectRatio="xMidYMid meet">

<g transform="translate(0.000000,270.000000) scale(0.100000,-0.100000)"
fill="#000000" stroke="none">
<path d="M887 2175 c-189 -52 -335 -213 -367 -404 -8 -46 -10 -196 -8 -462 4
-373 5 -397 25 -451 33 -89 69 -142 138 -206 74 -70 143 -106 240 -127 99 -21
779 -21 878 0 184 39 333 184 382 372 22 85 22 832 0 918 -23 87 -62 152 -135
226 -70 71 -137 111 -227 134 -78 20 -852 20 -926 0z m948 -175 c64 -31 134
-101 165 -165 l25 -50 3 -416 c3 -408 2 -417 -19 -475 -28 -74 -102 -154 -178
-191 l-56 -28 -420 0 -420 0 -56 26 c-79 37 -133 90 -171 167 l-33 67 0 420 0
420 28 57 c44 89 126 160 217 189 14 4 214 7 445 6 l420 -2 50 -25z"/>
<path d="M1729 1861 c-38 -39 -39 -87 -3 -130 22 -26 33 -31 70 -31 62 0 94
32 94 94 0 37 -5 48 -31 70 -43 36 -91 35 -130 -3z"/>
<path d="M1286 1760 c-122 -21 -249 -121 -304 -237 -24 -52 -27 -69 -27 -173
0 -108 2 -119 30 -175 160 -321 607 -309 757 22 19 40 23 66 23 153 0 97 -2
110 -31 171 -69 144 -185 226 -344 242 -30 3 -77 1 -104 -3z m189 -171 c53
-25 100 -76 127 -137 24 -54 21 -158 -6 -213 -22 -47 -78 -103 -125 -125 -46
-23 -134 -29 -188 -15 -147 40 -231 226 -164 364 29 59 101 123 160 142 58 18
137 12 196 -16z"/>
</g>
</svg>
