<?xml version="1.0" standalone="no"?>
<!DOCTYPE svg PUBLIC "-//W3C//DTD SVG 20010904//EN"
 "http://www.w3.org/TR/2001/REC-SVG-20010904/DTD/svg10.dtd">
<svg version="1.0" xmlns="http://www.w3.org/2000/svg"
 width="270.000000pt" height="270.000000pt" viewBox="0 0 270.000000 270.000000"
 preserveAspectRatio="xMidYMid meet">

<g transform="translate(0.000000,270.000000) scale(0.100000,-0.100000)"
fill="#000000" stroke="none">
<path d="M522 2178 c-9 -9 -12 -207 -12 -830 0 -798 0 -818 19 -828 27 -14
1615 -14 1642 0 19 10 19 30 19 828 0 623 -3 821 -12 830 -17 17 -1639 17
-1656 0z m1016 -352 c22 -84 102 -165 186 -187 23 -6 47 -13 54 -15 9 -3 12
-25 10 -86 l-3 -83 -43 -3 c-52 -4 -133 31 -179 76 -17 18 -33 32 -35 32 -2 0
-3 -109 -3 -243 0 -241 0 -242 -26 -298 -51 -108 -126 -167 -243 -190 -113
-23 -245 34 -313 135 -40 59 -53 103 -53 182 0 94 24 149 94 219 66 65 130 95
208 95 l39 0 -3 -77 -3 -78 -40 -6 c-50 -6 -77 -21 -104 -55 -116 -147 64
-336 220 -231 70 47 70 47 69 416 0 182 3 356 6 386 l7 55 71 0 72 0 12 -44z"/>
</g>
</svg>
